<svg width="134" height="134" viewBox="0 0 134 134" fill="none" xmlns="http://www.w3.org/2000/svg">
<path d="M5.01979 71.4878C2.54123 69.0093 2.54123 64.9907 5.01979 62.5122L28.2922 39.2397C31.1459 36.3861 35.9032 36.8855 38.1021 40.2696L61.8118 76.7604C64.3144 80.6121 69.9531 80.6121 72.4558 76.7604L96.1655 40.2696C98.3643 36.8855 103.122 36.3861 105.975 39.2397L129.248 62.5122C131.726 64.9907 131.726 69.0093 129.248 71.4878L100.435 100.301L71.6216 129.114C69.143 131.593 65.1245 131.593 62.646 129.114L33.8329 100.301L5.01979 71.4878Z" fill="#30180D"/>
<path d="M71.5687 69.9014C69.1444 71.4163 66.9961 71.8028 65.1238 71.0609C63.2651 70.2602 61.4539 68.4487 59.6904 65.6264C58.5599 63.8172 57.1536 60.9226 55.4715 56.9425C53.8031 52.9036 51.6349 47.5418 48.9672 40.8571L42.4617 36.8471C43.4841 34.699 44.7167 32.6458 46.1596 30.6876C47.5799 28.6932 49.2489 27.0969 51.1666 25.8986C52.1436 25.2881 53.2878 24.8247 54.5994 24.5082C55.9472 24.1691 56.9807 24.0516 57.6998 24.1557C58.7356 22.7538 59.7895 21.5418 60.8614 20.5198C61.9696 19.4752 63.0664 18.6137 64.1519 17.9354C66.54 16.4431 68.91 15.7672 71.2617 15.9077C73.5909 16.0119 75.7481 16.7267 77.7334 18.052C79.755 19.3547 81.4327 21.0735 82.7667 23.2083C83.9424 25.0898 84.7676 27.2156 85.2422 29.5855C85.6943 31.9192 85.6647 34.3275 85.1534 36.8104C84.6421 39.2933 83.5406 41.7174 81.8489 44.0825C80.1572 46.4477 77.7555 48.6026 74.6437 50.547C73.7391 51.1123 72.7825 51.6345 71.7739 52.1138C70.7789 52.5344 69.7499 52.9006 68.6871 53.2126C69.2839 54.6508 69.7972 55.7137 70.2268 56.4012C71.3799 58.2465 72.4787 59.7233 73.5234 60.8314C74.6042 61.917 75.6873 62.7244 76.7727 63.2536C75.6191 66.2385 73.8845 68.4544 71.5687 69.9014ZM67.5277 45.5601C69.0113 44.6331 70.1963 43.3895 71.0829 41.8293C71.9831 40.2102 72.4717 38.4962 72.5487 36.6871C72.6258 34.8781 72.1556 33.1594 71.1381 31.5312C70.1659 29.9753 68.8545 28.8829 67.2037 28.2541C65.5304 27.5891 63.7711 27.8332 61.9257 28.9863C61.2021 29.4385 60.4603 30.1033 59.7004 30.9806C60.234 32.1565 60.8534 33.631 61.5588 35.4039C62.2777 37.1181 63.0057 38.9272 63.7427 40.8313C64.5159 42.7128 65.219 44.5626 65.852 46.3808C66.4264 46.1728 66.985 45.8993 67.5277 45.5601Z" fill="#B67B68"/>
</svg>
